<svg version="1.0" xmlns="http://www.w3.org/2000/svg"
 width="33" height="33" viewBox="0 0 1024.000000 1024.000000"
 preserveAspectRatio="xMidYMid meet" id="logo-svg">

<g transform="translate(0.000000,1024.000000) scale(0.100000,-0.100000)"
fill="#000000" stroke="none">
<path d="M4100 8012 c-36 -8 -81 -20 -100 -27 -19 -7 -50 -17 -69 -23 -70 -23
-146 -80 -249 -187 -81 -84 -118 -132 -154 -198 -153 -281 -179 -649 -72
-1006 91 -303 314 -648 508 -785 144 -103 269 -142 419 -133 151 9 267 62 384
175 189 185 292 495 293 877 0 302 -44 508 -160 749 -90 186 -169 297 -268
377 -116 94 -151 117 -213 140 -127 48 -227 61 -319 41z m206 -307 c67 -33
182 -138 234 -215 87 -129 177 -342 212 -505 17 -82 17 -380 -1 -468 l-13 -67
-33 47 c-109 156 -148 209 -224 303 -47 58 -121 146 -164 195 -258 293 -347
439 -347 568 0 84 38 133 130 171 36 14 150 -2 206 -29z"/>
<path d="M5925 8011 c-187 -61 -251 -96 -351 -196 -236 -234 -385 -618 -401
-1030 -15 -413 86 -744 292 -950 195 -196 448 -240 689 -119 83 42 115 65 203
148 163 152 298 361 386 596 122 327 137 668 41 955 -96 289 -318 524 -557
591 -89 25 -232 27 -302 5z m228 -283 c83 -25 137 -117 123 -211 -16 -105 -89
-213 -351 -517 -190 -220 -265 -315 -361 -455 l-71 -105 -14 63 c-9 41 -14
125 -14 247 1 167 3 195 28 293 113 449 411 759 660 685z"/>
<path d="M2755 6444 c-146 -29 -246 -83 -350 -190 -101 -103 -174 -250 -212
-424 -25 -118 -25 -418 0 -544 83 -414 346 -788 651 -926 130 -59 286 -78 408
-50 129 30 260 116 351 231 135 168 208 403 210 669 1 321 -94 597 -309 890
-38 52 -207 216 -258 250 -129 87 -330 125 -491 94z m207 -284 c126 -39 233
-130 352 -299 73 -104 139 -244 172 -368 21 -80 26 -120 26 -218 0 -66 -4
-133 -9 -150 l-9 -29 -58 78 c-68 92 -175 213 -342 386 -326 337 -399 460
-331 561 22 33 69 57 113 58 12 1 51 -8 86 -19z"/>
<path d="M7230 6444 c-30 -8 -64 -18 -75 -23 -11 -6 -41 -19 -67 -30 -156 -66
-372 -276 -452 -441 -14 -30 -44 -86 -67 -124 -46 -77 -99 -231 -126 -363 -25
-123 -24 -385 1 -503 73 -339 266 -576 526 -645 81 -22 220 -19 310 6 296 81
587 397 709 769 56 169 76 295 75 485 0 141 -4 185 -22 258 -61 245 -163 413
-310 511 -148 98 -354 139 -502 100z m196 -283 c34 -15 45 -28 60 -66 41 -107
-20 -202 -351 -550 -193 -203 -257 -275 -331 -374 -32 -44 -62 -80 -66 -81
-13 0 -23 95 -21 200 2 138 35 266 106 413 94 193 230 350 368 422 107 56 170
66 235 36z"/>
<path d="M5060 5500 c-75 -10 -128 -25 -206 -60 -36 -17 -73 -30 -81 -30 -31
0 -170 -96 -323 -223 -181 -150 -534 -545 -648 -727 -19 -30 -47 -68 -62 -85
-15 -16 -36 -46 -46 -65 -10 -19 -37 -56 -59 -81 -22 -26 -53 -68 -69 -95 -16
-27 -48 -78 -71 -114 -237 -367 -307 -520 -341 -742 -86 -557 331 -1048 831
-979 128 18 206 48 445 169 224 115 295 144 445 184 116 32 363 32 487 1 123
-31 238 -80 428 -182 284 -152 438 -195 615 -173 177 22 306 84 433 205 237
229 316 580 210 942 -39 134 -181 413 -279 550 -16 22 -64 94 -108 160 -43 66
-140 201 -216 300 -418 547 -740 858 -1014 981 -119 54 -260 78 -371 64z m250
-352 c118 -60 133 -284 38 -558 -71 -203 -250 -504 -424 -712 -106 -127 -350
-369 -464 -461 -204 -165 -498 -336 -628 -367 -137 -32 -166 56 -102 305 181
694 920 1655 1384 1801 66 21 145 17 196 -8z"/>
</g>
</svg>